<svg xmlns="http://www.w3.org/2000/svg" version="1.1" xmlns:xlink="http://www.w3.org/1999/xlink" width="1000" height="1000"><style>
    #light-icon {
      display: inline;
    }
    #dark-icon {
      display: none;
    }

    @media (prefers-color-scheme: dark) {
      #light-icon {
        display: none;
      }
      #dark-icon {
        display: inline;
      }
    }
  </style><g id="light-icon"><svg xmlns="http://www.w3.org/2000/svg" version="1.1" xmlns:xlink="http://www.w3.org/1999/xlink" width="1000" height="1000"><g clip-path="url(#SvgjsClipPath1178)"><rect width="1000" height="1000" fill="#ffffff"></rect><g transform="matrix(21.875,0,0,21.875,150,150)"><svg xmlns="http://www.w3.org/2000/svg" version="1.1" xmlns:xlink="http://www.w3.org/1999/xlink" width="32" height="32"><svg xmlns="http://www.w3.org/2000/svg" width="32" height="32" viewBox="0 0 36 36"><!-- Icon from Clarity by VMware - https://github.com/vmware/clarity-assets/blob/master/LICENSE --><path fill="currentColor" d="M9.8 18.8h16.4v3.08h1.6V17.2h-9V14h-1.6v3.2h-9v4.68h1.6z" class="clr-i-outline clr-i-outline-path-1"></path><path fill="currentColor" d="M14 23H4a2 2 0 0 0-2 2v6a2 2 0 0 0 2 2h10a2 2 0 0 0 2-2v-6a2 2 0 0 0-2-2M4 31v-6h10v6Z" class="clr-i-outline clr-i-outline-path-2"></path><path fill="currentColor" d="M32 23H22a2 2 0 0 0-2 2v6a2 2 0 0 0 2 2h10a2 2 0 0 0 2-2v-6a2 2 0 0 0-2-2m-10 8v-6h10v6Z" class="clr-i-outline clr-i-outline-path-3"></path><path fill="currentColor" d="M13 13h10a2 2 0 0 0 2-2V5a2 2 0 0 0-2-2H13a2 2 0 0 0-2 2v6a2 2 0 0 0 2 2m0-8h10v6H13Z" class="clr-i-outline clr-i-outline-path-4"></path><path fill="none" d="M0 0h36v36H0z"></path></svg></svg></g></g><defs><clipPath id="SvgjsClipPath1178"><rect width="1000" height="1000" x="0" y="0" rx="150" ry="150"></rect></clipPath></defs></svg></g><g id="dark-icon"><svg xmlns="http://www.w3.org/2000/svg" version="1.1" xmlns:xlink="http://www.w3.org/1999/xlink" width="1000" height="1000"><g clip-path="url(#SvgjsClipPath1179)"><rect width="1000" height="1000" fill="#ffffff"></rect><g transform="matrix(21.875,0,0,21.875,150,150)"><svg xmlns="http://www.w3.org/2000/svg" version="1.1" xmlns:xlink="http://www.w3.org/1999/xlink" width="32" height="32"><svg xmlns="http://www.w3.org/2000/svg" width="32" height="32" viewBox="0 0 36 36"><!-- Icon from Clarity by VMware - https://github.com/vmware/clarity-assets/blob/master/LICENSE --><path fill="currentColor" d="M9.8 18.8h16.4v3.08h1.6V17.2h-9V14h-1.6v3.2h-9v4.68h1.6z" class="clr-i-outline clr-i-outline-path-1"></path><path fill="currentColor" d="M14 23H4a2 2 0 0 0-2 2v6a2 2 0 0 0 2 2h10a2 2 0 0 0 2-2v-6a2 2 0 0 0-2-2M4 31v-6h10v6Z" class="clr-i-outline clr-i-outline-path-2"></path><path fill="currentColor" d="M32 23H22a2 2 0 0 0-2 2v6a2 2 0 0 0 2 2h10a2 2 0 0 0 2-2v-6a2 2 0 0 0-2-2m-10 8v-6h10v6Z" class="clr-i-outline clr-i-outline-path-3"></path><path fill="currentColor" d="M13 13h10a2 2 0 0 0 2-2V5a2 2 0 0 0-2-2H13a2 2 0 0 0-2 2v6a2 2 0 0 0 2 2m0-8h10v6H13Z" class="clr-i-outline clr-i-outline-path-4"></path><path fill="none" d="M0 0h36v36H0z"></path></svg></svg></g></g><defs><clipPath id="SvgjsClipPath1179"><rect width="1000" height="1000" x="0" y="0" rx="150" ry="150"></rect></clipPath></defs></svg></g></svg>